# xmcd
#
# Track frame offsets:
#	150
#	3098
#	28290
#	53880
#	77300
#	96559
#	121060
#	146457
#	166067
#	185179
#	207060
#	220730
#	243817
#	254339
#	272101
#	287558
#	302946
#
# Disc length: 4356 seconds
#
# Revision: 1
# Processed by: cddbd v1.5PL3 Copyright (c) Steve Scherf et al.
# Submitted via: audiograbber 1.83.01
#
DISCID=e9110211
DTITLE=Arrival. - Простые слова.
DYEAR=2003
DGENRE=
TTITLE0=Преамбула.
TTITLE1=Простые слова.
TTITLE2=Механический дождь.
TTITLE3=Экологический сюрреализм.
TTITLE4=Song.
TTITLE5=Мелодекламация.
TTITLE6=Ты так считаешь - Общение с ветром. (Royal ix)
TTITLE7=Проекта 143В-Методом.
TTITLE8=Все как всегда.
TTITLE9=Пространство и время. (129-129 Disco Rmx)
TTITLE10=Untilted - Instar.
TTITLE11=Простые слова. (Midem Special Rmx)
TTITLE12=Преамбула II.
TTITLE13=It's Not Allowed Greenpeace.
TTITLE14=На большие куски. (Melodeklamation Rmx)
TTITLE15=Agressive Of Mind.
TTITLE16=Glucogenology.
EXTD=
EXTT0=
EXTT1=
EXTT2=
EXTT3=
EXTT4=
EXTT5=
EXTT6=
EXTT7=
EXTT8=
EXTT9=
EXTT10=
EXTT11=
EXTT12=
EXTT13=
EXTT14=
EXTT15=
EXTT16=
PLAYORDER=
